# xmcd CD database file
#
# Track frame offsets:
#	150
#	13358
#	31903
#	52688
#	75240
#	104280
#	120490
#	139745
#	164730
#	184678
#	200555
#	224013
#	246280
#	266823
#	283786
#	301960
#	317569
#
# Disc length: 4391 seconds
#
# Revision: 0
# Processed by: cddbd v1.5PL3 Copyright (c) Steve Scherf et al.
# Submitted via: CDex 1.51
#
DISCID=f4112511
DTITLE=Diana Krall - All For You
DYEAR=1900
DGENRE=Jazz
TTITLE0=I'm an Errand Girl for Rhythm
TTITLE1=Gee Baby, Ain't Good to you
TTITLE2=You call it Madness
TTITLE3=Frim Fram Sauce
TTITLE4=Boulevard of Broken Dreams
TTITLE5=Baby Baby All the Time
TTITLE6=Hit the Jive Jack
TTITLE7=You're Looking at me
TTITLE8=I'm Thru with Love
TTITLE9=Deed I Do
TTITLE10=A Blossom Fell
TTITLE11=If I Had You
TTITLE12=When I Grow Too Old to Dream
TTITLE13=Junior Reid/ Big Boss Man
TTITLE14=Susan Cadogan/ Cause you love me Baby
TTITLE15=Susan Cadogan/ Love Me
TTITLE16=Louis Armstrong/ Don't get Around Much Anymore
EXTD=
EXTT0=
EXTT1=
EXTT2=
EXTT3=
EXTT4=
EXTT5=
EXTT6=
EXTT7=
EXTT8=
EXTT9=
EXTT10=
EXTT11=
EXTT12=
EXTT13=
EXTT14=
EXTT15=
EXTT16=
PLAYORDER=
